<svg width="106" height="106" viewBox="0 0 106 106" fill="none" xmlns="http://www.w3.org/2000/svg">
<g opacity="0.65" filter="url(#filter0_bf_10_2)">
<rect x="11.1579" y="3" width="92.2038" height="92.2038" rx="20" transform="rotate(5.07597 11.1579 3)" fill="#66C8FF"/>
</g>
<rect x="10" y="10" width="85" height="85" rx="20" fill="#66C8FF"/>
<path d="M71.0952 66.1233L63.9581 58.9863C63.636 58.6642 63.1993 58.4852 62.7412 58.4852H61.5744C63.5501 55.9583 64.7241 52.7799 64.7241 49.3223C64.7241 41.0972 58.0595 34.4327 49.8344 34.4327C41.6093 34.4327 34.9447 41.0972 34.9447 49.3223C34.9447 57.5475 41.6093 64.212 49.8344 64.212C53.292 64.212 56.4703 63.038 58.9973 61.0623V62.2291C58.9973 62.6873 59.1763 63.1239 59.4984 63.4461L66.6354 70.5831C67.3083 71.256 68.3964 71.256 69.0621 70.5831L71.088 68.5572C71.7609 67.8843 71.7609 66.7962 71.0952 66.1233ZM49.8344 58.4852C44.7734 58.4852 40.6715 54.3906 40.6715 49.3223C40.6715 44.2613 44.7662 40.1595 49.8344 40.1595C54.8955 40.1595 58.9973 44.2541 58.9973 49.3223C58.9973 54.3834 54.9026 58.4852 49.8344 58.4852Z" fill="white"/>
<path d="M55.9421 47.2002L54.7783 46.0364C54.624 45.8821 54.4147 45.7954 54.1963 45.7954H52.8911V43.7377C52.8911 43.0559 52.3384 42.5032 51.6566 42.5032H47.5417C46.8599 42.5032 46.3072 43.0559 46.3072 43.7377V45.7952H45.002C44.7837 45.7952 44.5746 45.8818 44.42 46.0362L43.2563 47.2002C43.102 47.3545 43.0153 47.5638 43.0153 47.7822V49.9101H46.3072V49.4986C46.3072 49.2713 46.4914 49.0871 46.7187 49.0871H47.5417C47.7691 49.0871 47.9532 49.2713 47.9532 49.4986V49.9101H51.2451V49.4986C51.2451 49.2713 51.4293 49.0871 51.6566 49.0871H52.4796C52.707 49.0871 52.8911 49.2713 52.8911 49.4986V49.9101H56.1831V47.7819C56.1831 47.5638 56.0964 47.3545 55.9421 47.2002ZM51.2451 45.7952H47.9532V44.1492H51.2451V45.7952ZM52.8911 51.1446C52.8911 51.3719 52.707 51.5561 52.4796 51.5561H51.6566C51.4293 51.5561 51.2451 51.3719 51.2451 51.1446V50.7331H47.9532V51.1446C47.9532 51.3719 47.7691 51.5561 47.5417 51.5561H46.7187C46.4914 51.5561 46.3072 51.3719 46.3072 51.1446V50.7331H43.0153V53.202C43.0153 53.6565 43.3838 54.025 43.8383 54.025H55.3601C55.8145 54.025 56.1831 53.6565 56.1831 53.202V50.7331H52.8911V51.1446Z" fill="white"/>
<defs>
<filter id="filter0_bf_10_2" x="0.689844" y="0.68985" width="104.62" height="104.62" filterUnits="userSpaceOnUse" color-interpolation-filters="sRGB">
<feFlood flood-opacity="0" result="BackgroundImageFix"/>
<feGaussianBlur in="BackgroundImageFix" stdDeviation="2"/>
<feComposite in2="SourceAlpha" operator="in" result="effect1_backgroundBlur_10_2"/>
<feBlend mode="normal" in="SourceGraphic" in2="effect1_backgroundBlur_10_2" result="shape"/>
<feGaussianBlur stdDeviation="2" result="effect2_foregroundBlur_10_2"/>
</filter>
</defs>
</svg>
